:version 1.10
:name ASF
:units
  mass 1
  length 1
  angle deg
:documentation
  ASF file generated by Kaydara
:root
  axis xyz
  order  tx ty tz rx ry rz
  position 0 0 0
  orientation 0 0 0
:bonedata
  begin
    id 1
    name lfemurDummy
    direction 0.61522 -0.761478 0.204097
    length 5.68318
    axis 0 -0 0 xyz
  end
  begin
    id 2
    name lfemur
    direction 0.34202 -0.939693 -5.84747e-008
    length 16.9147
    axis 0 -0 20 xyz
    dof rx ry rz
    limits( -inf , inf )
( -inf , inf )
( -inf , inf )

  end
  begin
    id 3
    name ltibia
    direction 0.34202 -0.939693 1.20839e-009
    length 18.0532
    axis 0 -0 20 xyz
    dof rz ry rx
    limits( -inf , inf )
( -inf , inf )
( -inf , inf )

  end
  begin
    id 4
    name lfoot
    direction 0.0841971 -0.23133 0.969225
    length 5.23822
    axis -90 7.62852e-016 20 xyz
    dof ry rx rz
    limits( -inf , inf )
( -inf , inf )
( -inf , inf )

  end
  begin
    id 5
    name ltoes
    direction 0 0 0
    length 0
    axis 0 0 0 xyz
    dof rz ry rx
    limits( -inf , inf )
( -inf , inf )
( -inf , inf )

  end
  begin
    id 6
    name rfemurDummy
    direction -0.625247 -0.75382 0.202044
    length 5.74091
    axis 0 -0 0 xyz
  end
  begin
    id 7
    name rfemur
    direction -0.34202 -0.939693 -1.47013e-008
    length 16.4922
    axis 0 -0 -20 xyz
    dof rx ry rz
    limits( -inf , inf )
( -inf , inf )
( -inf , inf )

  end
  begin
    id 8
    name rtibia
    direction -0.34202 -0.939693 -7.74345e-010
    length 18.2421
    axis 0 -0 -20 xyz
    dof rz ry rx
    limits( -inf , inf )
( -inf , inf )
( -inf , inf )

  end
  begin
    id 9
    name rfoot
    direction -0.124331 -0.341598 0.931586
    length 5.45787
    axis -90 -7.62852e-016 -20 xyz
    dof ry rx rz
    limits( -inf , inf )
( -inf , inf )
( -inf , inf )

  end
  begin
    id 10
    name rtoes
    direction 0 0 0
    length 0
    axis 0 0 0 xyz
    dof rz ry rx
    limits( -inf , inf )
( -inf , inf )
( -inf , inf )

  end
  begin
    id 11
    name lowerbackDummy
    direction 0 0 0
    length 0
    axis 0 -0 0 xyz
  end
  begin
    id 12
    name lowerback
    direction -0.0218484 0.994884 -0.0986304
    length 4.45607
    axis 0 -0 0 xyz
    dof rx ry rz
    limits( -inf , inf )
( -inf , inf )
( -inf , inf )

  end
  begin
    id 13
    name upperback
    direction -0.00973057 0.999717 -0.0217111
    length 4.47449
    axis 0 -0 0 xyz
    dof rx ry rz
    limits( -inf , inf )
( -inf , inf )
( -inf , inf )

  end
  begin
    id 14
    name thorax
    direction -0.000928171 0.999699 0.0245198
    length 4.50973
    axis 0 -0 0 xyz
    dof rx ry rz
    limits( -inf , inf )
( -inf , inf )
( -inf , inf )

  end
  begin
    id 15
    name rclavicle
    direction -0.9009 0.425937 -0.0834055
    length 7.28587
    axis 0 -0 0 xyz
    dof rx ry rz
    limits( -inf , inf )
( -inf , inf )
( -inf , inf )

  end
  begin
    id 16
    name rhumerus
    direction -1 -2.23604e-007 -1.42637e-007
    length 13.5704
    axis 180 30 90 xyz
    dof rx ry rz
    limits( -inf , inf )
( -inf , inf )
( -inf , inf )

  end
  begin
    id 17
    name rradius
    direction -1 5.68281e-008 -4.4952e-007
    length 8.06782
    axis 180 30 90 xyz
    dof rz ry rx
    limits( -inf , inf )
( -inf , inf )
( -inf , inf )

  end
  begin
    id 18
    name rwrist
    direction -1 1.51393e-007 1.38143e-007
    length 4.03391
    axis -90 -90 0 xyz
    dof rz rx ry
    limits( -inf , inf )
( -inf , inf )
( -inf , inf )

  end
  begin
    id 19
    name rthumb
    direction 0 0 0
    length 0
    axis 0 0 0 xyz
    dof ry rx rz
    limits( -inf , inf )
( -inf , inf )
( -inf , inf )

  end
  begin
    id 20
    name rhand
    direction -1 -3.34077e-007 -5.59631e-007
    length 1.29744
    axis -90 -90 0 xyz
    dof ry rx rz
    limits( -inf , inf )
( -inf , inf )
( -inf , inf )

  end
  begin
    id 21
    name rfingers
    direction 0 0 0
    length 0
    axis 0 0 0 xyz
    dof rz ry rx
    limits( -inf , inf )
( -inf , inf )
( -inf , inf )

  end
  begin
    id 22
    name lclavicle
    direction 0.940017 0.332249 -0.0773232
    length 8.29589
    axis 0 -0 0 xyz
    dof rx ry rz
    limits( -inf , inf )
( -inf , inf )
( -inf , inf )

  end
  begin
    id 23
    name lhumerus
    direction 1 7.41158e-008 -1.44768e-008
    length 12.0042
    axis 180 -30 -90 xyz
    dof rx ry rz
    limits( -inf , inf )
( -inf , inf )
( -inf , inf )

  end
  begin
    id 24
    name lradius
    direction 1 -1.32972e-007 3.10821e-007
    length 8.1902
    axis 180 -30 -90 xyz
    dof rz ry rx
    limits( -inf , inf )
( -inf , inf )
( -inf , inf )

  end
  begin
    id 25
    name lwrist
    direction 1 3.08957e-007 4.01394e-007
    length 4.09509
    axis -90 90 0 xyz
    dof rz rx ry
    limits( -inf , inf )
( -inf , inf )
( -inf , inf )

  end
  begin
    id 26
    name lthumb
    direction 0 0 0
    length 0
    axis 0 0 0 xyz
    dof ry rx rz
    limits( -inf , inf )
( -inf , inf )
( -inf , inf )

  end
  begin
    id 27
    name lhand
    direction 1 -1.64125e-007 -6.99514e-007
    length 1.37229
    axis -90 90 0 xyz
    dof ry rx rz
    limits( -inf , inf )
( -inf , inf )
( -inf , inf )

  end
  begin
    id 28
    name lfingers
    direction 0 0 0
    length 0
    axis 0 0 0 xyz
    dof rz ry rx
    limits( -inf , inf )
( -inf , inf )
( -inf , inf )

  end
  begin
    id 29
    name lowerneck
    direction -0.030798 0.998024 0.0547665
    length 3.93918
    axis 0 -0 0 xyz
    dof rx ry rz
    limits( -inf , inf )
( -inf , inf )
( -inf , inf )

  end
  begin
    id 30
    name upperneck
    direction 0.0531588 0.996611 -0.0627736
    length 3.95491
    axis 0 -0 0 xyz
    dof rx ry rz
    limits( -inf , inf )
( -inf , inf )
( -inf , inf )

  end
  begin
    id 31
    name head
    direction 0 0 0
    length 0
    axis 0 0 0 xyz
    dof rx ry rz
    limits( -inf , inf )
( -inf , inf )
( -inf , inf )

  end
:hierarchy
  begin
    root lfemurDummy rfemurDummy lowerbackDummy
    lfemurDummy lfemur
    lfemur ltibia
    ltibia lfoot
    lfoot ltoes
    rfemurDummy rfemur
    rfemur rtibia
    rtibia rfoot
    rfoot rtoes
    lowerbackDummy lowerback
    lowerback upperback
    upperback thorax
    thorax rclavicle lclavicle lowerneck
    rclavicle rhumerus
    rhumerus rradius
    rradius rwrist
    rwrist rthumb rhand
    rhand rfingers
    lclavicle lhumerus
    lhumerus lradius
    lradius lwrist
    lwrist lthumb lhand
    lhand lfingers
    lowerneck upperneck
    upperneck head
  end

:SAMPLES-PER-SECOND 30
:FULLY-SPECIFIED
:DEGREES
58
root  -7.316177849 37.03488928 8.187221918 14.76098633 -44.03599548 -7.396972656
lowerback  10.62059975 8.563400269 -3.826349974
upperback  2.342600107 10.29500008 -10.46630001
thorax  -2.095149994 5.101659775 -10.25769997
lowerneck  1.835950017 -0.6695029736 -12.1633997
upperneck  11.96409988 -2.186769962 14.38379955
head  3.453310013 -1.09138 6.453159809
lclavicle  0 -9.442270133e-015 7.951389973e-016
lhumerus  11.4630003 -42.58509827 70.74749756
lradius  1.164237044e-031 -3.33367607e-031 109.2509995
lwrist  -7.062250077e-031 -3.531125038e-031 11.5934
lhand  -1.496451383e-031 -27.76390076 20.11240005
lfingers  90 7.125020027 -90
lthumb  89.89689403 5.08795885 91.16245106
rclavicle  0 -9.442270133e-015 7.951389973e-016
rhumerus  54.23939896 -6.156189919 -20.43519974
rradius  3.091085745e-031 1.707053881e-031 28.90970039
rwrist  7.062250077e-031 -0 13.25570011
rhand  -7.920061211e-032 -33.2840004 9.303460121
rfingers  -90 -7.125020027 -90
rthumb  -92.93752616 -24.25625642 -97.11982154
rfemur  5.720940113 -5.643889904 30.65850067
rtibia  -0 0 47.83530045
rfoot  -0 3.819020033 -11.36149979
rtoes  5.373923086 19.29304026 -105.8922705
lfemur  -59.42430115 -9.648830414 1.950600028
ltibia  -0 0 52.88809967
lfoot  -0 2.409049988 -12.37730026
ltoes  -4.250644065 -19.5611806 -102.515957
59
root  -7.507155261 37.10755476 8.221066843 14.72601318 -42.58299255 -6.614013672
lowerback  10.30480003 9.130260468 -4.267469883
upperback  2.575609922 11.05239964 -10.62450027
thorax  -1.61172998 5.497369766 -10.18309975
lowerneck  2.443520069 -1.554350019 -11.2826004
upperneck  11.93589973 -3.493180037 14.81519985
head  3.512520075 -1.703969955 6.407919884
lclavicle  0 -9.442270133e-015 7.951389973e-016
lhumerus  10.67339993 -43.72650146 72.1529007
lradius  1.191021636e-031 -3.324200882e-031 109.711998
lwrist  -7.062250077e-031 1.765562519e-031 10.86970043
lhand  -1.496451383e-031 -27.76390076 20.11240005
lfingers  90 7.125020027 -90
lthumb  89.89689403 5.08795885 91.16245106
rclavicle  0 -9.442270133e-015 7.951389973e-016
rhumerus  58.90090179 -13.98499966 -33.22819901
rradius  3.325889567e-031 1.186297865e-031 19.63059998
rwrist  3.531125038e-031 -7.062250077e-031 32.42470169
rhand  -7.920061211e-032 -33.2840004 9.303460121
rfingers  -90 -7.125020027 -90
rthumb  -92.93752616 -24.25625642 -97.11982154
rfemur  5.977099895 -6.516359806 30.72340012
rtibia  -0 0 46.23429871
rfoot  -0 3.569390059 -11.97669983
rtoes  5.373923086 19.29304026 -105.8922705
lfemur  -60.03630066 -9.477359772 0.8791369796
ltibia  -0 0 52.66659927
lfoot  -0 3.216670036 -12.57120037
ltoes  -4.250644065 -19.5611806 -102.515957
60
root  -7.64168867 37.16022161 8.277266795 15.25701904 -40.90800476 -6.625
lowerback  10.05850029 9.405639648 -4.07156992
upperback  2.837059975 11.51589966 -10.42370033
thorax  -1.138309956 5.749120235 -10.02779961
lowerneck  2.937489986 -2.239900112 -11.15919971
upperneck  11.6619997 -4.512660027 15.58380032
head  3.495130062 -2.196949959 6.609250069
lclavicle  0 -9.442270133e-015 7.951389973e-016
lhumerus  9.766320229 -44.53730011 73.68540192
lradius  1.22657568e-031 -3.311246916e-031 110.3259964
lwrist  -7.062250077e-031 -3.531125038e-031 10.05150032
lhand  -1.496451383e-031 -27.76390076 20.11240005
lfingers  90 7.125020027 -90
lthumb  89.89689403 5.08795885 91.16245106
rclavicle  0 -9.442270133e-015 7.951389973e-016
rhumerus  69.63410187 -24.75110054 -60.08520126
rradius  3.402561239e-031 9.441509705e-032 15.50839996
rwrist  1.324171889e-031 -7.062250077e-031 62.62810135
rhand  -7.920061211e-032 -33.2840004 9.303460121
rfingers  -90 -7.125020027 -90
rthumb  -92.93752616 -24.25625642 -97.11982154
rfemur  6.279489994 -7.287680149 31.30859947
rtibia  -0 0 44.48220062
rfoot  -0 3.654550076 -11.80179977
rtoes  5.373923086 19.29304026 -105.8922705
lfemur  -60.78419876 -9.422590256 0.4780139923
ltibia  -0 0 52.50979996
lfoot  -0 3.962539911 -12.49699974
ltoes  -4.250644065 -19.5611806 -102.515957
61
root  -7.777355224 37.21444438 8.351889182 15.8079834 -39.21800232 -6.593994141
lowerback  9.772540092 9.533089638 -4.132380009
upperback  3.011260033 11.74979973 -10.10999966
thorax  -0.8489930034 5.872710228 -9.594519615
lowerneck  3.293260098 -2.764349937 -11.33940029
upperneck  11.51119995 -5.324999809 16.4762001
head  3.524590015 -2.592890024 6.912419796
lclavicle  0 -9.442270133e-015 7.951389973e-016
lhumerus  8.455499649 -45.18809891 75.33439636
lradius  1.273206048e-031 -3.293598396e-031 111.1350021
lwrist  -7.062250077e-031 -1.765562519e-031 9.03826046
lhand  -1.496451383e-031 -27.76390076 20.11240005
lfingers  90 7.125020027 -90
lthumb  89.89689403 5.08795885 91.16245106
rclavicle  0 -9.442270133e-015 7.951389973e-016
rhumerus  76.6446991 -28.15049934 -74.04519653
rradius  3.397591195e-031 9.618825849e-032 15.80720043
rwrist  0 -7.062250077e-031 74.02590179
rhand  -7.920061211e-032 -33.2840004 9.303460121
rfingers  -90 -7.125020027 -90
rthumb  -92.93752616 -24.25625642 -97.11982154
rfemur  6.603759766 -7.920710087 31.79430008
rtibia  -0 0 42.66619873
rfoot  -0 3.894030094 -11.02729988
rtoes  5.373923086 19.29304026 -105.8922705
lfemur  -61.56100082 -9.466730118 0.02223519981
ltibia  -0 0 52.41650009
lfoot  -0 4.238500118 -12.51990032
ltoes  -4.250644065 -19.5611806 -102.515957
62
root  -7.949533237 37.2564451 8.424844517 16.3369751 -37.42700195 -6.622009277
lowerback  9.440239906 9.598790169 -4.308680058
upperback  3.147069931 11.88689995 -9.841879845
thorax  -0.6044459939 5.942689896 -9.140640259
lowerneck  3.238889933 -3.256230116 -11.12460041
upperneck  11.75010014 -6.094470024 17.2343998
head  3.727730036 -2.931720018 7.100520134
lclavicle  0 -9.442270133e-015 7.951389973e-016
lhumerus  7.104310036 -45.8655014 76.65799713
lradius  1.328209472e-031 -3.27180434e-031 112.0950012
lwrist  -1.412450015e-030 1.765562519e-031 8.052960396
lhand  -1.496451383e-031 -27.76390076 20.11240005
lfingers  90 7.125020027 -90
lthumb  89.89689403 5.08795885 91.16245106
rclavicle  0 -9.442270133e-015 7.951389973e-016
rhumerus  70.52549744 -27.10580063 -64.53440094
rradius  3.348444016e-031 1.121056068e-031 18.51049995
rwrist  3.531125038e-031 -7.062250077e-031 57.29399872
rhand  -7.920061211e-032 -33.2840004 9.303460121
rfingers  -90 -7.125020027 -90
rthumb  -92.93752616 -24.25625642 -97.11982154
rfemur  6.957570076 -8.478730202 32.417099
rtibia  -0 0 40.87139893
rfoot  -0 3.969589949 -10.35340023
rtoes  5.373923086 19.29304026 -105.8922705
lfemur  -62.2881012 -9.633999825 -0.3435249925
ltibia  -0 0 52.36410141
lfoot  -0 4.343160152 -12.47669983
ltoes  -4.250644065 -19.5611806 -102.515957
63
root  -8.094955805 37.2757769 8.499355767 16.94500732 -35.65100098 -7.195007324
lowerback  9.227049828 9.559490204 -4.038219929
upperback  3.295360088 11.9222002 -9.418549538
thorax  -0.371273011 5.965929985 -8.76887989
lowerneck  3.251110077 -3.642369986 -10.88249969
upperneck  11.84130001 -6.703380108 17.90460014
head  3.853780031 -3.198220015 7.258709908
lclavicle  0 -9.442270133e-015 7.951389973e-016
lhumerus  5.478240013 -46.26279831 78.08000183
lradius  1.395758142e-031 -3.243563356e-031 113.2829971
lwrist  -7.062250077e-031 -1.765562519e-031 7.392710209
lhand  -1.496451383e-031 -27.76390076 20.11240005
lfingers  90 7.125020027 -90
lthumb  89.89689403 5.08795885 91.16245106
rclavicle  0 -9.442270133e-015 7.951389973e-016
rhumerus  60.08800125 -21.43670082 -46.50510025
rradius  3.232099118e-031 1.422103839e-031 23.74920082
rwrist  7.062250077e-031 -1.059337512e-030 29.18689919
rhand  -7.920061211e-032 -33.2840004 9.303460121
rfingers  -90 -7.125020027 -90
rthumb  -92.93752616 -24.25625642 -97.11982154
rfemur  7.447879791 -8.883720398 33.38140106
rtibia  -0 0 39.19540024
rfoot  -0 3.913389921 -10.21580029
rtoes  5.373923086 19.29304026 -105.8922705
lfemur  -62.78039932 -9.788820267 -0.2669810057
ltibia  -0 0 52.36130142
lfoot  -0 4.296989918 -12.36250019
ltoes  -4.250644065 -19.5611806 -102.515957
